HIERARCHY
ROOT mixamorig:Hips
{
	OFFSET -0.000008 104.274872 1.554316
	CHANNELS 6 Xposition Yposition Zposition Xrotation Yrotation Zrotation
	JOINT mixamorig:Spine
	{
		OFFSET -0.000005 10.181595 0.131519
		CHANNELS 6 Xposition Yposition Zposition Xrotation Yrotation Zrotation
		JOINT mixamorig:Spine1
		{
			OFFSET -0.000000 9.893959 -1.470707
			CHANNELS 6 Xposition Yposition Zposition Xrotation Yrotation Zrotation
			JOINT mixamorig:Spine2
			{
				OFFSET -0.000000 9.220757 -1.370641
				CHANNELS 6 Xposition Yposition Zposition Xrotation Yrotation Zrotation
				JOINT mixamorig:Neck
				{
					OFFSET 0.000001 16.740417 -2.049036
					CHANNELS 6 Xposition Yposition Zposition Xrotation Yrotation Zrotation
					JOINT mixamorig:Head
					{
						OFFSET 0.000000 9.617874 1.685006
						CHANNELS 6 Xposition Yposition Zposition Xrotation Yrotation Zrotation
						JOINT mixamorig:HeadTop_End
						{
							OFFSET 0.000002 22.037354 7.501101
							CHANNELS 6 Xposition Yposition Zposition Xrotation Yrotation Zrotation
							End Site
							{
								OFFSET 0.000168 2310.654297 -282.823242
							}
						}
					}
				}
				JOINT mixamorig:RightShoulder
				{
					OFFSET -4.569970 11.014908 -2.160885
					CHANNELS 6 Xposition Yposition Zposition Xrotation Yrotation Zrotation
					JOINT mixamorig:RightArm
					{
						OFFSET -10.592851 -0.524811 -2.232101
						CHANNELS 6 Xposition Yposition Zposition Xrotation Yrotation Zrotation
						JOINT mixamorig:RightForeArm
						{
							OFFSET -27.841511 0.000031 -0.000004
							CHANNELS 6 Xposition Yposition Zposition Xrotation Yrotation Zrotation
							JOINT mixamorig:RightHand
							{
								OFFSET -28.328831 -0.000015 0.000015
								CHANNELS 6 Xposition Yposition Zposition Xrotation Yrotation Zrotation
								JOINT mixamorig:RightHandThumb1
								{
									OFFSET -2.464806 -1.573990 2.681852
									CHANNELS 6 Xposition Yposition Zposition Xrotation Yrotation Zrotation
									JOINT mixamorig:RightHandThumb2
									{
										OFFSET -3.215179 -1.872803 1.924282
										CHANNELS 6 Xposition Yposition Zposition Xrotation Yrotation Zrotation
										JOINT mixamorig:RightHandThumb3
										{
											OFFSET -2.654831 -1.527969 1.512609
											CHANNELS 6 Xposition Yposition Zposition Xrotation Yrotation Zrotation
											JOINT mixamorig:RightHandThumb4
											{
												OFFSET -2.018814 -1.152008 1.108052
												CHANNELS 6 Xposition Yposition Zposition Xrotation Yrotation Zrotation
												End Site
												{
													OFFSET -188.809540 -114.533607 132.431396
												}
											}
										}
									}
								}
								JOINT mixamorig:RightHandIndex1
								{
									OFFSET -9.108284 -0.517868 2.259835
									CHANNELS 6 Xposition Yposition Zposition Xrotation Yrotation Zrotation
									JOINT mixamorig:RightHandIndex2
									{
										OFFSET -3.699989 0.000000 0.001215
										CHANNELS 6 Xposition Yposition Zposition Xrotation Yrotation Zrotation
										JOINT mixamorig:RightHandIndex3
										{
											OFFSET -2.850006 0.000031 -0.000522
											CHANNELS 6 Xposition Yposition Zposition Xrotation Yrotation Zrotation
											JOINT mixamorig:RightHandIndex4
											{
												OFFSET -2.772186 -0.000015 -0.000020
												CHANNELS 6 Xposition Yposition Zposition Xrotation Yrotation Zrotation
												End Site
												{
													OFFSET -277.218445 0.000000 -0.050231
												}
											}
										}
									}
								}
								JOINT mixamorig:RightHandMiddle1
								{
									OFFSET -9.532516 -0.000031 -0.000023
									CHANNELS 6 Xposition Yposition Zposition Xrotation Yrotation Zrotation
									JOINT mixamorig:RightHandMiddle2
									{
										OFFSET -3.700005 -0.000015 0.003713
										CHANNELS 6 Xposition Yposition Zposition Xrotation Yrotation Zrotation
										JOINT mixamorig:RightHandMiddle3
										{
											OFFSET -2.949974 0.000015 -0.002054
											CHANNELS 6 Xposition Yposition Zposition Xrotation Yrotation Zrotation
											JOINT mixamorig:RightHandMiddle4
											{
												OFFSET -2.946640 0.000000 -0.000156
												CHANNELS 6 Xposition Yposition Zposition Xrotation Yrotation Zrotation
												End Site
												{
													OFFSET -294.664337 0.000000 -0.113670
												}
											}
										}
									}
								}
								JOINT mixamorig:RightHandRing1
								{
									OFFSET -9.103600 -0.043076 -1.865134
									CHANNELS 6 Xposition Yposition Zposition Xrotation Yrotation Zrotation
									JOINT mixamorig:RightHandRing2
									{
										OFFSET -3.379288 0.000000 -0.001055
										CHANNELS 6 Xposition Yposition Zposition Xrotation Yrotation Zrotation
										JOINT mixamorig:RightHandRing3
										{
											OFFSET -2.889687 -0.000015 0.000379
											CHANNELS 6 Xposition Yposition Zposition Xrotation Yrotation Zrotation
											JOINT mixamorig:RightHandRing4
											{
												OFFSET -2.638809 -0.000015 0.000941
												CHANNELS 6 Xposition Yposition Zposition Xrotation Yrotation Zrotation
												End Site
												{
													OFFSET -263.880371 0.000000 0.516020
												}
											}
										}
									}
								}
								JOINT mixamorig:RightHandPinky1
								{
									OFFSET -8.076683 -0.486710 -3.806280
									CHANNELS 6 Xposition Yposition Zposition Xrotation Yrotation Zrotation
									JOINT mixamorig:RightHandPinky2
									{
										OFFSET -3.600014 -0.000015 -0.003747
										CHANNELS 6 Xposition Yposition Zposition Xrotation Yrotation Zrotation
										JOINT mixamorig:RightHandPinky3
										{
											OFFSET -2.099983 0.000000 -0.005739
											CHANNELS 6 Xposition Yposition Zposition Xrotation Yrotation Zrotation
											JOINT mixamorig:RightHandPinky4
											{
												OFFSET -2.115768 -0.000031 -0.003680
												CHANNELS 6 Xposition Yposition Zposition Xrotation Yrotation Zrotation
												End Site
												{
													OFFSET -211.577087 0.000000 -0.350686
												}
											}
										}
									}
								}
							}
						}
					}
				}
				JOINT mixamorig:LeftShoulder
				{
					OFFSET 4.570447 11.014725 -2.160855
					CHANNELS 6 Xposition Yposition Zposition Xrotation Yrotation Zrotation
					JOINT mixamorig:LeftArm
					{
						OFFSET 10.592371 -0.524597 -2.232119
						CHANNELS 6 Xposition Yposition Zposition Xrotation Yrotation Zrotation
						JOINT mixamorig:LeftForeArm
						{
							OFFSET 27.841532 -0.000031 0.000026
							CHANNELS 6 Xposition Yposition Zposition Xrotation Yrotation Zrotation
							JOINT mixamorig:LeftHand
							{
								OFFSET 28.328846 -0.000061 0.000022
								CHANNELS 6 Xposition Yposition Zposition Xrotation Yrotation Zrotation
								JOINT mixamorig:LeftHandThumb1
								{
									OFFSET 2.466141 -1.576172 2.681732
									CHANNELS 6 Xposition Yposition Zposition Xrotation Yrotation Zrotation
									JOINT mixamorig:LeftHandThumb2
									{
										OFFSET 3.217812 -1.872070 1.916482
										CHANNELS 6 Xposition Yposition Zposition Xrotation Yrotation Zrotation
										JOINT mixamorig:LeftHandThumb3
										{
											OFFSET 2.656029 -1.528778 1.514513
											CHANNELS 6 Xposition Yposition Zposition Xrotation Yrotation Zrotation
											JOINT mixamorig:LeftHandThumb4
											{
												OFFSET 2.020889 -1.154053 1.115139
												CHANNELS 6 Xposition Yposition Zposition Xrotation Yrotation Zrotation
												End Site
												{
													OFFSET 190.885437 -115.081749 130.048782
												}
											}
										}
									}
								}
								JOINT mixamorig:LeftHandIndex1
								{
									OFFSET 9.109314 -0.518021 2.259871
									CHANNELS 6 Xposition Yposition Zposition Xrotation Yrotation Zrotation
									JOINT mixamorig:LeftHandIndex2
									{
										OFFSET 3.699989 0.000000 -0.000322
										CHANNELS 6 Xposition Yposition Zposition Xrotation Yrotation Zrotation
										JOINT mixamorig:LeftHandIndex3
										{
											OFFSET 2.850006 0.000000 0.000352
											CHANNELS 6 Xposition Yposition Zposition Xrotation Yrotation Zrotation
											JOINT mixamorig:LeftHandIndex4
											{
												OFFSET 2.774864 -0.000031 -0.000027
												CHANNELS 6 Xposition Yposition Zposition Xrotation Yrotation Zrotation
												End Site
												{
													OFFSET 277.486267 0.000000 -0.009857
												}
											}
										}
									}
								}
								JOINT mixamorig:LeftHandMiddle1
								{
									OFFSET 9.533394 0.000061 0.000044
									CHANNELS 6 Xposition Yposition Zposition Xrotation Yrotation Zrotation
									JOINT mixamorig:LeftHandMiddle2
									{
										OFFSET 3.699989 -0.000015 -0.000231
										CHANNELS 6 Xposition Yposition Zposition Xrotation Yrotation Zrotation
										JOINT mixamorig:LeftHandMiddle3
										{
											OFFSET 2.949997 -0.000015 -0.000059
											CHANNELS 6 Xposition Yposition Zposition Xrotation Yrotation Zrotation
											JOINT mixamorig:LeftHandMiddle4
											{
												OFFSET 2.952896 0.000031 0.000063
												CHANNELS 6 Xposition Yposition Zposition Xrotation Yrotation Zrotation
												End Site
												{
													OFFSET 295.289337 0.000000 0.022810
												}
											}
										}
									}
								}
								JOINT mixamorig:LeftHandRing1
								{
									OFFSET 9.104523 -0.042999 -1.865074
									CHANNELS 6 Xposition Yposition Zposition Xrotation Yrotation Zrotation
									JOINT mixamorig:LeftHandRing2
									{
										OFFSET 3.150009 -0.000031 0.000043
										CHANNELS 6 Xposition Yposition Zposition Xrotation Yrotation Zrotation
										JOINT mixamorig:LeftHandRing3
										{
											OFFSET 2.949982 -0.000015 0.000040
											CHANNELS 6 Xposition Yposition Zposition Xrotation Yrotation Zrotation
											JOINT mixamorig:LeftHandRing4
											{
												OFFSET 2.644348 0.000000 0.000057
												CHANNELS 6 Xposition Yposition Zposition Xrotation Yrotation Zrotation
												End Site
												{
													OFFSET 264.434631 0.000000 0.012105
												}
											}
										}
									}
								}
								JOINT mixamorig:LeftHandPinky1
								{
									OFFSET 8.077789 -0.486847 -3.806259
									CHANNELS 6 Xposition Yposition Zposition Xrotation Yrotation Zrotation
									JOINT mixamorig:LeftHandPinky2
									{
										OFFSET 3.599953 0.000031 0.014727
										CHANNELS 6 Xposition Yposition Zposition Xrotation Yrotation Zrotation
										JOINT mixamorig:LeftHandPinky3
										{
											OFFSET 2.100021 0.000015 0.007705
											CHANNELS 6 Xposition Yposition Zposition Xrotation Yrotation Zrotation
											JOINT mixamorig:LeftHandPinky4
											{
												OFFSET 2.125504 0.000031 0.007517
												CHANNELS 6 Xposition Yposition Zposition Xrotation Yrotation Zrotation
												End Site
												{
													OFFSET 212.550781 0.000000 0.625752
												}
											}
										}
									}
								}
							}
						}
					}
				}
			}
		}
	}
	JOINT mixamorig:RightUpLeg
	{
		OFFSET -8.207787 -6.751648 -1.599560
		CHANNELS 6 Xposition Yposition Zposition Xrotation Yrotation Zrotation
		JOINT mixamorig:RightLeg
		{
			OFFSET -0.000002 -44.370117 0.345942
			CHANNELS 6 Xposition Yposition Zposition Xrotation Yrotation Zrotation
			JOINT mixamorig:RightFoot
			{
				OFFSET 0.000003 -44.423679 -3.043532
				CHANNELS 6 Xposition Yposition Zposition Xrotation Yrotation Zrotation
				JOINT mixamorig:RightToeBase
				{
					OFFSET -0.000002 -8.728671 10.710558
					CHANNELS 6 Xposition Yposition Zposition Xrotation Yrotation Zrotation
					JOINT mixamorig:RightToe_End
					{
						OFFSET -0.000001 -0.000679 9.278119
						CHANNELS 6 Xposition Yposition Zposition Xrotation Yrotation Zrotation
						End Site
						{
							OFFSET 0.000000 -0.067690 927.812134
						}
					}
				}
			}
		}
	}
	JOINT mixamorig:LeftUpLeg
	{
		OFFSET 8.207793 -6.751686 -1.599556
		CHANNELS 6 Xposition Yposition Zposition Xrotation Yrotation Zrotation
		JOINT mixamorig:LeftLeg
		{
			OFFSET -0.000004 -44.370014 0.346954
			CHANNELS 6 Xposition Yposition Zposition Xrotation Yrotation Zrotation
			JOINT mixamorig:LeftFoot
			{
				OFFSET -0.000001 -44.423672 -3.044401
				CHANNELS 6 Xposition Yposition Zposition Xrotation Yrotation Zrotation
				JOINT mixamorig:LeftToeBase
				{
					OFFSET -0.000002 -8.728669 10.710558
					CHANNELS 6 Xposition Yposition Zposition Xrotation Yrotation Zrotation
					JOINT mixamorig:LeftToe_End
					{
						OFFSET -0.000003 -0.000679 9.278133
						CHANNELS 6 Xposition Yposition Zposition Xrotation Yrotation Zrotation
						End Site
						{
							OFFSET 0.000000 -0.068021 927.813477
						}
					}
				}
			}
		}
	}
}
MOTION
Frames: 3
Frame Time: 0.033333
0.000006 104.270477 1.554256 0.000010 0.000003 -0.000113 -0.000005 10.181587 0.131522 0.000001 -0.000003 0.000084 -0.000000 9.893967 -1.470711 0.000001 0.000000 -0.000000 -0.000000 9.220802 -1.370642 0.000000 -0.000000 -0.000000 0.000001 16.740433 -2.049030 0.000000 -0.000000 -0.000000 0.000000 9.617859 1.685014 0.000000 0.000000 0.000000 0.000002 22.037384 7.501101 0.000000 -0.000000 0.000000 -4.569968 11.014880 -2.160881 0.000008 0.000001 -0.000038 -10.592862 -0.524803 -2.231850 75.740992 39.655085 -31.326410 -27.841534 -0.000007 0.000580 -49.142747 106.042280 62.534944 -28.328821 0.000022 0.000029 -0.000321 -0.000046 0.000004 -2.464416 -1.573743 2.682324 -49.857331 -169.158036 -15.283332 -3.215294 -1.872579 1.924659 153.941085 30.377611 -3.446289 -2.654933 -1.527873 1.513092 140.993054 27.784219 -44.092477 -2.018838 -1.152000 1.108064 -0.000001 -0.000005 0.000000 -9.108380 -0.517567 2.260148 105.712545 16.234791 -21.388302 -3.700062 0.000317 0.001537 103.114239 13.787826 -17.290653 -2.850087 0.000363 -0.000230 102.189520 11.161572 -13.805648 -2.772170 0.000000 -0.000017 0.000001 0.000002 -0.000000 -9.532603 0.000260 0.000268 97.798829 17.316428 -19.967127 -3.700099 0.000317 0.003994 98.821363 13.657075 -15.800733 -2.950063 0.000324 -0.001800 99.428922 11.891628 -14.001276 -2.946608 0.000000 -0.000151 -0.000000 0.000000 -0.000001 -9.103716 -0.042773 -1.864851 97.276640 19.087992 -21.571431 -3.379348 0.000323 -0.000781 98.826301 10.434264 -12.187779 -2.889760 0.000364 0.000677 102.575870 6.541119 -8.212755 -2.638814 -0.000000 0.000942 -0.000000 -0.000001 -0.000001 -8.076756 -0.486396 -3.805989 91.210524 20.412587 -20.681065 -3.600046 0.000282 -0.003498 93.894009 10.062648 -10.379416 -2.100015 0.000323 -0.005472 95.037383 5.144727 -5.379652 -2.115773 -0.000046 -0.003676 -0.000000 -0.000002 -0.000001 4.570446 11.014691 -2.160851 -0.000018 0.000010 -0.000021 10.592421 -0.524474 -2.232383 72.833531 -22.164806 16.444620 27.841845 0.000061 -0.000196 -68.580611 -108.778242 -87.188225 28.328861 -0.000030 0.000018 0.000027 -0.000088 0.000000 2.466004 -1.576153 2.681905 -38.881299 160.005637 -10.790466 3.217819 -1.871751 1.916363 154.747197 -29.148133 11.242823 2.656110 -1.528642 1.514453 137.578315 -28.549899 41.915860 2.020902 -1.154068 1.115137 0.000006 0.000003 0.000004 9.109384 -0.517856 2.259734 82.280161 -16.081404 14.059461 3.700049 0.000145 -0.000466 78.886076 -15.379018 12.690775 2.850048 0.000180 0.000191 76.980241 -12.894280 10.267814 2.774889 -0.000015 -0.000031 -0.000001 -0.000000 -0.000001 9.533471 0.000196 -0.000105 80.653100 -15.041745 12.781292 3.700054 0.000160 -0.000375 82.740959 -15.012230 13.235839 2.950074 0.000138 -0.000182 81.543696 -18.095377 15.639917 2.952862 -0.000032 0.000061 0.000001 0.000000 0.000002 9.104586 -0.042856 -1.865227 80.625595 -14.460600 12.288911 3.150050 0.000176 -0.000086 84.792946 -14.403638 13.163921 2.950044 0.000133 -0.000054 85.903194 -15.561165 14.500025 2.644340 0.000046 0.000058 0.000001 0.000000 0.000000 8.077847 -0.486746 -3.806378 70.507073 -17.067938 12.535288 3.600004 0.000140 0.014563 69.232245 -12.676867 9.124511 2.100012 0.000157 0.007562 71.912500 -11.480608 8.692836 2.125498 -0.000016 0.007512 -0.000001 -0.000001 -0.000001 -8.207786 -6.751667 -1.599560 -0.077001 -0.000003 0.000080 -0.000002 -44.370110 0.345938 0.153719 -0.000000 -0.000000 0.000000 -44.423679 -3.043532 -0.076700 0.000000 -0.000002 -0.000006 -8.728667 10.710559 -0.000009 -0.000000 -0.000000 -0.000001 -0.000679 9.278123 0.000000 -0.000000 -0.000000 8.207792 -6.751710 -1.599556 -0.074518 -0.000003 0.000081 -0.000002 -44.370014 0.346960 0.148822 0.000002 0.000000 -0.000001 -44.423664 -3.044403 -0.074314 0.000000 -0.000002 -0.000004 -8.728671 10.710558 0.000007 -0.000000 -0.000000 0.000000 -0.000680 9.278137 -0.000000 0.000000 -0.000001 
0.000006 104.270477 1.554256 0.000010 0.000003 -0.000113 -0.000005 10.181587 0.131522 0.000001 -0.000003 0.000084 -0.000000 9.893967 -1.470711 0.000001 0.000000 -0.000000 -0.000000 9.220802 -1.370642 0.000000 -0.000000 -0.000000 0.000001 16.740433 -2.049030 0.000000 -0.000000 -0.000000 0.000000 9.617859 1.685014 0.000000 0.000000 0.000000 0.000002 22.037384 7.501101 0.000000 -0.000000 0.000000 -4.569968 11.014880 -2.160881 0.000008 0.000001 -0.000038 -10.592858 -0.524799 -2.231839 76.362191 41.199640 -32.933389 -27.841520 0.000002 0.000561 -44.979743 104.841881 56.560902 -28.328825 0.000033 0.000027 -0.000321 -0.000046 0.000009 -2.464422 -1.573775 2.682319 -48.931363 -163.573455 -12.653832 -3.215285 -1.872602 1.924651 154.682270 30.805953 -1.146539 -2.654963 -1.527893 1.513088 142.757224 27.315240 -44.425709 -2.018837 -1.152000 1.108066 -0.000001 -0.000003 0.000000 -9.108363 -0.517562 2.260143 106.010485 14.907105 -19.762936 -3.700057 0.000309 0.001536 104.868354 12.793127 -16.555047 -2.850100 0.000372 -0.000233 104.558325 10.606993 -13.686179 -2.772170 0.000001 -0.000018 0.000000 -0.000001 -0.000001 -9.532600 0.000273 0.000254 96.659963 15.941856 -18.040744 -3.700063 0.000320 0.003999 98.419652 12.151692 -13.955166 -2.950060 0.000337 -0.001781 101.030000 11.624228 -14.077452 -2.946639 0.000001 -0.000160 0.000001 -0.000001 -0.000001 -9.103708 -0.042765 -1.864853 95.191930 17.936411 -19.559367 -3.379328 0.000325 -0.000798 97.510055 8.199445 -9.365945 -2.889752 0.000351 0.000685 104.504544 6.496518 -8.443595 -2.638819 0.000001 0.000943 0.000001 0.000003 0.000001 -8.076765 -0.486395 -3.806013 88.803927 19.952063 -19.396574 -3.600025 0.000284 -0.003523 90.946592 7.838420 -7.610618 -2.100012 0.000331 -0.005473 95.717889 4.107311 -4.301677 -2.115753 -0.000043 -0.003681 0.000000 -0.000001 -0.000003 4.570446 11.014691 -2.160851 -0.000018 0.000010 -0.000021 10.592443 -0.524463 -2.232396 73.064910 -28.114408 21.017670 27.841839 0.000024 -0.000185 -65.072469 -104.431817 -78.903465 28.328842 -0.000027 0.000018 0.000022 -0.000090 0.000002 2.465976 -1.576158 2.681920 -41.111131 166.539096 -8.111461 3.217854 -1.871789 1.916386 159.138217 -26.106450 26.428854 2.656099 -1.528655 1.514455 138.342299 -28.107646 51.424552 2.020891 -1.154054 1.115144 0.000004 -0.000000 0.000003 9.109368 -0.517875 2.259735 82.362014 -18.424927 16.140406 3.700054 0.000141 -0.000495 80.595508 -12.159985 10.336753 2.850039 0.000180 0.000199 80.937359 -10.031077 8.562731 2.774869 -0.000043 -0.000027 0.000004 -0.000001 0.000001 9.533458 0.000192 -0.000101 80.630547 -17.597728 14.957172 3.700042 0.000182 -0.000381 82.751293 -11.190571 9.862047 2.950051 0.000169 -0.000192 84.447161 -12.096397 10.987255 2.952874 -0.000016 0.000067 -0.000003 0.000002 -0.000000 9.104597 -0.042865 -1.865214 80.080348 -17.249446 14.528463 3.150045 0.000196 -0.000112 84.842916 -10.687355 9.772548 2.950027 0.000181 -0.000097 86.514243 -10.086315 9.495053 2.644318 0.000017 0.000060 0.000000 0.000000 -0.000000 8.077845 -0.486750 -3.806406 70.214229 -18.460838 13.465833 3.599989 0.000148 0.014572 70.911024 -14.338483 10.610339 2.100036 0.000158 0.007546 72.911142 -11.151891 8.606834 2.125504 0.000000 0.007511 0.000001 -0.000002 0.000000 -8.207786 -6.751667 -1.599560 -0.077001 -0.000003 0.000080 -0.000002 -44.370110 0.345938 0.153719 -0.000000 -0.000000 0.000000 -44.423679 -3.043532 -0.076700 0.000000 -0.000002 -0.000006 -8.728667 10.710559 -0.000009 -0.000000 -0.000000 -0.000001 -0.000679 9.278123 0.000000 -0.000000 -0.000000 8.207792 -6.751710 -1.599556 -0.074518 -0.000003 0.000081 -0.000002 -44.370014 0.346960 0.148822 0.000002 0.000000 -0.000001 -44.423664 -3.044403 -0.074314 0.000000 -0.000002 -0.000004 -8.728671 10.710558 0.000007 -0.000000 -0.000000 0.000000 -0.000680 9.278137 -0.000000 0.000000 -0.000001 
0.000006 104.270477 1.554256 0.000010 0.000003 -0.000113 -0.000005 10.181587 0.131522 0.000001 -0.000003 0.000084 -0.000000 9.893967 -1.470711 0.000001 0.000000 -0.000000 -0.000000 9.220802 -1.370642 0.000000 -0.000000 -0.000000 0.000001 16.740433 -2.049030 0.000000 -0.000000 -0.000000 0.000000 9.617859 1.685014 0.000000 0.000000 0.000000 0.000002 22.037384 7.501101 0.000000 -0.000000 0.000000 -4.569968 11.014880 -2.160881 0.000008 0.000001 -0.000038 -10.592842 -0.524812 -2.231816 76.664147 45.987636 -37.094812 -27.841507 0.000011 0.000554 -44.586348 102.528680 54.143087 -28.328825 0.000019 0.000028 -0.000320 -0.000048 0.000009 -2.464410 -1.573766 2.682327 -47.873633 -162.761960 -9.961469 -3.215291 -1.872601 1.924661 155.753749 30.533992 -3.296284 -2.654947 -1.527904 1.513085 143.180354 27.077423 -46.362269 -2.018831 -1.152014 1.108062 0.000001 -0.000003 0.000004 -9.108389 -0.517555 2.260154 105.997316 15.727252 -20.832543 -3.700070 0.000305 0.001551 103.799061 13.661768 -17.341845 -2.850100 0.000372 -0.000235 102.868516 11.174477 -13.988723 -2.772170 -0.000016 -0.000020 0.000001 0.000008 -0.000001 -9.532602 0.000269 0.000254 95.542612 16.400420 -18.199623 -3.700076 0.000330 0.003994 98.449035 12.038707 -13.831950 -2.950058 0.000318 -0.001783 101.300482 11.473428 -13.961662 -2.946610 0.000001 -0.000153 -0.000000 0.000002 0.000000 -9.103720 -0.042759 -1.864863 94.781476 18.105341 -19.604656 -3.379308 0.000317 -0.000783 97.580222 7.216490 -8.256346 -2.889743 0.000352 0.000659 104.560709 5.919955 -7.707659 -2.638805 -0.000017 0.000938 -0.000001 0.000001 0.000001 -8.076769 -0.486399 -3.806006 89.681497 20.476106 -20.210835 -3.600039 0.000296 -0.003515 91.666275 7.151608 -7.002969 -2.100013 0.000312 -0.005473 96.214997 3.401630 -3.555359 -2.115777 -0.000041 -0.003675 0.000000 -0.000001 -0.000006 4.570446 11.014691 -2.160851 -0.000018 0.000010 -0.000021 10.592484 -0.524474 -2.232411 72.971938 -42.025427 31.718470 27.841839 0.000039 -0.000187 -64.053897 -102.933526 -76.295945 28.328846 -0.000025 0.000017 0.000018 -0.000090 -0.000003 2.466144 -1.576167 2.681889 -18.316590 158.460730 -52.349667 3.217862 -1.871848 1.916400 157.553872 -24.950240 33.179812 2.656112 -1.528671 1.514464 137.587768 -28.370376 50.231301 2.020890 -1.154073 1.115148 0.000000 0.000003 0.000006 9.109380 -0.517879 2.259719 82.567937 -19.025372 16.728610 3.700042 0.000142 -0.000462 81.252367 -12.968268 11.152550 2.850032 0.000175 0.000198 80.860240 -10.992585 9.372175 2.774877 -0.000049 -0.000024 0.000003 0.000000 -0.000002 9.533464 0.000183 -0.000092 79.567654 -18.491632 15.431134 3.700044 0.000158 -0.000378 82.241918 -12.561206 10.974008 2.950067 0.000151 -0.000201 83.429661 -12.854900 11.471767 2.952876 -0.000030 0.000062 0.000002 -0.000001 -0.000001 9.104582 -0.042870 -1.865225 79.796854 -18.301335 15.342261 3.150038 0.000188 -0.000108 83.152055 -12.411547 11.020993 2.950027 0.000178 -0.000095 84.156018 -10.891059 9.840282 2.644304 0.000011 0.000057 -0.000001 -0.000001 -0.000000 8.077839 -0.486755 -3.806393 70.787985 -19.862274 14.623889 3.600004 0.000154 0.014574 70.721459 -16.289188 11.978712 2.100036 0.000159 0.007537 72.963339 -12.600989 9.698414 2.125489 -0.000016 0.007515 0.000000 0.000003 -0.000001 -8.207786 -6.751667 -1.599560 -0.077001 -0.000003 0.000080 -0.000002 -44.370110 0.345938 0.153719 -0.000000 -0.000000 0.000000 -44.423679 -3.043532 -0.076700 0.000000 -0.000002 -0.000006 -8.728667 10.710559 -0.000009 -0.000000 -0.000000 -0.000001 -0.000679 9.278123 0.000000 -0.000000 -0.000000 8.207792 -6.751710 -1.599556 -0.074518 -0.000003 0.000081 -0.000002 -44.370014 0.346960 0.148822 0.000002 0.000000 -0.000001 -44.423664 -3.044403 -0.074314 0.000000 -0.000002 -0.000004 -8.728671 10.710558 0.000007 -0.000000 -0.000000 0.000000 -0.000680 9.278137 -0.000000 0.000000 -0.000001 
